
<svg version="1.0" xmlns="http://www.w3.org/2000/svg"
 width="512.000000pt" height="434.000000pt" viewBox="0 0 512.000000 434.000000"
 preserveAspectRatio="xMidYMid meet">

<g transform="translate(0.000000,434.000000) scale(0.100000,-0.100000)"
fill="#000000" stroke="none">
<path d="M0 2170 l0 -2170 2560 0 2560 0 0 2170 0 2170 -2560 0 -2560 0 0
-2170z m2059 2147 c12 -16 5 -27 -18 -27 -9 0 -39 -11 -67 -24 -136 -63 -208
-216 -155 -331 20 -45 98 -128 141 -150 51 -27 155 -37 341 -33 198 3 224 9
236 57 5 19 0 30 -21 48 -27 23 -30 23 -262 23 -270 0 -295 5 -320 67 -11 25
-15 58 -12 100 3 53 9 68 31 91 l27 27 605 3 c668 3 676 2 798 -59 96 -49 120
-71 281 -264 174 -208 244 -278 330 -329 70 -42 185 -81 268 -91 32 -4 62 -13
68 -20 7 -8 9 -119 8 -326 l-3 -314 -255 -3 c-161 -2 -277 1 -315 8 -79 15
-185 60 -260 110 -90 60 -624 576 -646 625 -31 68 -19 160 26 189 35 23 151
22 186 -2 14 -9 119 -102 233 -207 114 -104 216 -191 227 -193 29 -5 51 17 47
47 -2 19 -62 80 -223 228 -121 112 -237 215 -258 230 -82 57 -216 35 -291 -48
-103 -113 -109 -219 -18 -320 87 -97 602 -589 664 -635 83 -61 158 -98 265
-131 84 -25 100 -27 358 -31 l270 -4 50 -55 c80 -90 89 -93 377 -93 l247 0 34
30 c28 24 37 27 46 16 8 -10 10 -349 9 -1262 l-3 -1249 -1014 -3 c-736 -1
-1018 1 -1027 9 -17 14 -9 29 14 29 9 0 40 11 68 24 136 63 208 216 155 331
-20 45 -98 128 -141 150 -50 26 -155 37 -322 33 -176 -3 -203 -11 -215 -57 -5
-19 0 -30 21 -48 27 -23 31 -23 242 -23 249 0 275 -6 300 -67 11 -25 15 -58
12 -100 -3 -53 -9 -68 -31 -91 l-27 -27 -605 -3 c-668 -3 -676 -2 -798 59 -96
49 -120 71 -281 264 -174 208 -244 278 -330 329 -70 42 -185 81 -268 91 -32 4
-62 13 -68 20 -7 8 -9 119 -8 326 l3 314 263 3 c305 3 346 -3 489 -74 103 -51
178 -116 535 -466 206 -201 218 -220 203 -313 -10 -73 -40 -95 -129 -95 -51 0
-78 5 -97 18 -14 9 -119 103 -233 207 -119 109 -217 191 -230 193 -28 4 -49
-19 -44 -50 3 -22 401 -398 481 -455 82 -57 216 -35 291 48 103 113 109 219
18 320 -87 97 -602 589 -664 635 -83 61 -158 98 -265 131 -84 25 -100 27 -358
31 l-270 4 -50 55 c-80 90 -89 93 -378 93 l-249 0 -30 -30 c-61 -62 -58 -131
-58 1240 0 685 3 1250 7 1253 3 4 462 7 1018 7 835 0 1015 -2 1024 -13z m3039
1 c16 -16 17 -993 1 -1004 -6 -3 -23 6 -38 20 -33 31 -52 33 -77 5 -18 -20
-19 -45 -24 -378 l-5 -356 -219 -3 c-184 -2 -223 0 -243 13 l-23 16 2 467 3
467 82 6 c125 9 168 53 108 109 -22 20 -31 22 -89 18 -82 -7 -140 -38 -186
-102 l-35 -48 -95 5 c-78 3 -109 10 -170 35 -111 47 -160 90 -317 277 -192
230 -269 302 -374 354 -81 40 -181 71 -225 71 -23 0 -48 22 -37 33 3 4 443 7
978 7 742 0 974 -3 983 -12z m-4469 -2595 c21 -18 21 -19 19 -483 l-3 -465
-85 -6 c-93 -6 -127 -21 -137 -58 -5 -19 1 -30 22 -49 26 -22 36 -24 96 -20
85 6 142 37 189 102 l35 48 95 -5 c78 -3 109 -10 170 -35 111 -47 160 -90 317
-277 192 -230 269 -302 374 -354 81 -40 181 -71 225 -71 23 0 48 -22 37 -33
-3 -4 -443 -7 -978 -7 -742 0 -974 3 -983 12 -16 16 -17 1033 -1 1044 6 3 23
-6 38 -20 34 -33 54 -33 80 0 20 26 21 38 21 354 0 180 3 330 7 333 3 4 104 7
224 7 192 0 219 -2 238 -17z"/>
<path d="M2153 2655 c-113 -31 -207 -98 -268 -190 -109 -165 -98 -341 30 -483
69 -76 622 -512 650 -512 15 0 132 87 326 241 167 133 311 251 321 263 44 51
87 136 103 202 14 60 15 80 5 127 -45 218 -277 396 -467 358 -71 -14 -149 -51
-204 -97 -60 -50 -100 -47 -174 11 -102 79 -221 108 -322 80z m237 -146 c49
-25 68 -42 89 -76 14 -25 38 -59 53 -77 31 -36 50 -31 83 23 36 60 99 124 140
142 30 14 65 19 140 19 90 0 106 -3 160 -29 71 -33 85 -48 119 -121 22 -47 26
-69 26 -151 0 -158 -3 -162 -320 -416 -257 -206 -266 -212 -311 -213 -44 0
-52 5 -311 210 -244 194 -267 214 -294 267 -27 53 -29 67 -29 163 0 119 13
157 73 218 57 57 103 72 218 72 93 0 106 -2 164 -31z"/>
</g>
</svg>
