
<svg version="1.0" xmlns="http://www.w3.org/2000/svg"
 width="512.000000pt" height="434.000000pt" viewBox="0 0 512.000000 434.000000"
 preserveAspectRatio="xMidYMid meet">

<g transform="translate(0.000000,434.000000) scale(0.100000,-0.100000)"
fill="#000000" stroke="none">
<path d="M1997 4329 c-237 -56 -323 -352 -151 -522 83 -82 148 -97 430 -97
231 0 254 3 289 38 27 27 34 86 15 122 -22 41 -46 45 -307 50 l-253 5 -27 28
c-40 39 -40 105 0 144 l27 28 570 3 c621 3 643 1 753 -54 84 -42 130 -86 288
-275 160 -191 211 -245 274 -289 93 -64 223 -113 334 -126 l61 -7 0 -288 0
-289 -232 0 c-300 0 -378 18 -525 118 -80 55 -639 596 -651 630 -21 61 23 121
90 122 34 0 54 -16 263 -207 138 -127 240 -213 261 -220 71 -26 144 38 129
113 -5 28 -38 63 -183 197 -350 323 -347 322 -472 321 -57 0 -88 -5 -127 -23
-173 -77 -229 -317 -107 -459 65 -77 593 -581 656 -628 84 -61 178 -108 285
-141 84 -25 100 -27 361 -31 l272 -4 15 -28 c21 -40 88 -95 134 -108 25 -8
134 -12 315 -12 l278 0 29 29 29 29 0 427 0 427 -29 29 c-41 41 -101 41 -142
0 l-29 -29 0 -356 0 -356 -188 0 c-135 0 -193 4 -205 13 -16 11 -17 47 -15
442 l3 430 80 6 c96 7 122 19 141 66 20 46 10 86 -29 119 -30 25 -35 26 -132
22 -120 -4 -170 -27 -225 -101 -30 -41 -40 -47 -70 -47 -90 1 -216 53 -295
122 -26 23 -114 121 -195 218 -81 96 -169 196 -196 221 -95 88 -241 156 -381
178 -87 13 -1159 14 -1216 0z"/>
<path d="M4975 3728 c-94 -51 -61 -188 45 -188 107 0 139 140 43 189 -27 14
-62 14 -88 -1z"/>
<path d="M2149 3611 c-64 -65 -20 -171 71 -171 33 0 48 6 71 29 64 65 20 171
-71 171 -33 0 -48 -6 -71 -29z"/>
<path d="M1896 3525 c-42 -22 -55 -44 -56 -91 0 -95 113 -136 175 -62 29 35
32 78 8 118 -28 48 -76 61 -127 35z"/>
<path d="M1642 3365 c-44 -19 -67 -73 -52 -120 15 -44 41 -66 87 -72 97 -13
149 121 71 184 -24 19 -72 23 -106 8z"/>
<path d="M1432 3154 c-68 -28 -79 -120 -20 -169 80 -68 198 24 153 118 -24 52
-81 73 -133 51z"/>
<path d="M1239 2881 c-64 -65 -20 -171 71 -171 33 0 48 6 71 29 64 65 20 171
-71 171 -33 0 -48 -6 -71 -29z"/>
<path d="M2113 2695 c-193 -52 -326 -211 -348 -416 -12 -113 31 -245 110 -336
35 -41 573 -474 638 -513 39 -24 75 -25 107 -3 48 33 615 487 628 502 105 127
144 283 107 424 -88 339 -493 470 -753 245 l-34 -29 -41 34 c-115 94 -275 129
-414 92z m238 -223 c51 -26 85 -63 134 -144 14 -23 32 -36 59 -43 47 -11 82 6
111 54 36 59 99 124 140 142 56 26 156 25 215 -2 134 -61 189 -218 123 -350
-25 -48 -55 -76 -293 -266 -146 -117 -268 -212 -272 -213 -18 -1 -533 418
-553 450 -69 110 -56 239 33 328 79 78 203 96 303 44z"/>
<path d="M1142 2605 c-38 -32 -48 -72 -28 -118 17 -41 45 -59 91 -59 44 0 72
16 91 54 50 96 -71 193 -154 123z"/>
<path d="M3899 2431 c-23 -23 -29 -38 -29 -71 0 -91 106 -135 171 -71 64 65
20 171 -71 171 -33 0 -48 -6 -71 -29z"/>
<path d="M1097 2310 c-52 -41 -44 -136 14 -165 72 -38 149 6 149 83 0 61 -38
102 -95 102 -27 0 -51 -7 -68 -20z"/>
<path d="M3907 2140 c-75 -59 -34 -180 62 -180 89 1 133 104 72 169 -35 38
-93 43 -134 11z"/>
<path d="M1117 2010 c-55 -43 -42 -143 22 -170 71 -29 141 17 141 92 0 82 -98
129 -163 78z"/>
<path d="M29 1871 l-29 -29 0 -407 0 -407 29 -29 c41 -41 101 -41 142 0 l29
29 0 336 0 336 188 0 c135 0 193 -4 205 -12 16 -12 17 -48 15 -443 l-3 -430
-85 -6 c-47 -3 -95 -12 -107 -19 -67 -42 -58 -153 15 -181 15 -6 70 -9 122 -7
115 4 166 28 220 101 30 41 40 47 70 47 90 -1 216 -53 295 -122 26 -23 114
-121 195 -218 81 -96 169 -196 196 -221 98 -90 244 -158 390 -179 54 -8 259
-10 644 -8 l565 3 56 26 c199 93 246 351 93 502 -82 81 -149 97 -410 97 -209
0 -235 -4 -268 -36 -28 -29 -35 -58 -24 -101 16 -63 36 -67 295 -73 l233 -5
27 -28 c40 -39 40 -105 0 -144 l-27 -28 -570 -3 c-621 -3 -643 -1 -753 54 -84
42 -130 86 -288 275 -160 191 -211 245 -274 289 -93 64 -223 113 -334 126
l-61 7 0 288 0 289 233 0 c266 0 317 -8 443 -71 93 -46 135 -82 479 -414 131
-126 243 -243 250 -259 26 -61 -18 -125 -87 -126 -34 0 -54 16 -263 208 -138
126 -240 212 -261 219 -71 26 -144 -38 -129 -113 5 -28 38 -63 183 -197 350
-323 347 -322 472 -321 57 0 88 5 127 23 173 77 229 317 107 459 -65 77 -593
581 -656 628 -84 61 -178 108 -285 141 -84 25 -100 27 -361 31 l-272 4 -15 28
c-21 40 -88 95 -134 108 -25 8 -134 12 -315 12 l-278 0 -29 -29z"/>
<path d="M3874 1860 c-62 -25 -82 -107 -39 -158 32 -38 72 -48 118 -28 42 17
57 42 57 93 -1 74 -69 120 -136 93z"/>
<path d="M3744 1579 c-25 -13 -54 -60 -54 -89 0 -29 26 -77 49 -90 34 -17 95
-12 120 11 32 30 41 62 30 103 -17 63 -85 93 -145 65z"/>
<path d="M3576 1335 c-42 -22 -55 -44 -55 -90 -1 -98 111 -138 173 -64 69 82
-25 204 -118 154z"/>
<path d="M3325 1114 c-46 -50 -39 -119 17 -158 80 -57 189 44 144 132 -20 39
-44 52 -96 52 -31 0 -47 -6 -65 -26z"/>
<path d="M3113 992 c-28 -4 -73 -49 -75 -76 -3 -49 4 -73 32 -98 64 -59 170
-12 170 75 0 18 -34 87 -42 87 -2 0 -17 4 -33 8 -17 4 -40 6 -52 4z"/>
<path d="M2779 871 c-64 -65 -20 -171 71 -171 58 0 100 42 100 100 0 91 -106
135 -171 71z"/>
<path d="M29 771 c-71 -72 -2 -191 97 -167 42 11 74 53 74 98 0 89 -107 132
-171 69z"/>
</g>
</svg>
