
<svg version="1.0" xmlns="http://www.w3.org/2000/svg"
 width="512.000000pt" height="506.000000pt" viewBox="0 0 512.000000 506.000000"
 preserveAspectRatio="xMidYMid meet">

<g transform="translate(0.000000,506.000000) scale(0.100000,-0.100000)"
fill="#000000" stroke="none">
<path d="M0 2530 l0 -2530 2560 0 2560 0 0 2530 0 2530 -2560 0 -2560 0 0
-2530z m5099 2506 c8 -10 10 -674 9 -2517 l-3 -2504 -46 -3 c-32 -2 -50 2 -59
12 -10 13 -9 17 6 22 29 11 64 46 64 64 0 9 -9 25 -21 36 -19 18 -42 19 -289
22 -204 2 -271 6 -279 16 -7 9 -12 342 -13 1089 l-3 1075 -24 26 c-31 32 -41
32 -72 0 l-24 -26 -5 -1086 -5 -1087 -329 -3 c-222 -1 -333 1 -341 8 -11 9
-14 265 -18 1298 -4 1182 -5 1293 -21 1357 -10 39 -20 93 -23 121 l-5 51 52
22 c102 44 195 61 329 61 194 0 313 -34 453 -127 94 -62 169 -148 222 -257 67
-135 76 -197 76 -503 0 -240 1 -260 20 -290 34 -56 92 -33 106 42 12 64 -3
504 -19 576 -35 152 -114 293 -235 416 -78 80 -149 131 -250 182 -82 41 -82
41 -82 80 0 28 8 49 25 69 49 58 89 161 93 237 7 127 -33 219 -141 323 -71 67
-142 106 -231 124 -154 33 -361 -88 -442 -257 -48 -100 -59 -167 -39 -250 17
-77 29 -101 84 -174 72 -96 51 -161 -51 -161 -47 0 -48 1 -88 60 -98 144 -255
278 -416 356 -92 44 -94 46 -94 80 0 25 11 49 39 87 133 176 146 365 37 530
-113 170 -307 269 -468 239 -188 -35 -356 -190 -412 -381 -39 -132 -1 -275
104 -395 42 -48 50 -64 50 -96 0 -39 0 -39 -87 -84 -159 -83 -295 -203 -379
-335 -37 -58 -41 -61 -79 -61 -22 0 -64 11 -92 25 -51 23 -53 26 -53 63 0 24
6 45 15 52 27 22 82 124 99 183 21 73 20 132 -3 199 -30 87 -49 116 -120 187
-108 109 -240 158 -354 132 -172 -38 -311 -168 -363 -340 -35 -116 -1 -248 93
-354 26 -29 33 -46 33 -77 0 -38 -2 -41 -53 -66 -198 -101 -360 -278 -439
-481 -49 -126 -58 -199 -58 -471 0 -239 1 -246 22 -269 27 -29 51 -29 78 -1
19 21 20 34 20 247 0 268 11 388 44 483 69 197 234 356 443 426 72 24 92 26
253 27 156 0 183 -3 245 -23 39 -12 86 -30 105 -40 33 -16 35 -20 34 -67 0
-28 -9 -81 -19 -120 -17 -66 -19 -147 -24 -1365 l-6 -1295 -319 -3 c-227 -2
-323 1 -332 9 -12 10 -14 188 -14 1084 l0 1073 -26 31 c-31 38 -43 39 -75 5
l-24 -26 -5 -1086 -5 -1087 -385 -5 c-406 -5 -421 -7 -436 -52 -5 -18 1 -29
35 -58 23 -20 38 -39 35 -43 -12 -12 -89 -8 -102 5 -9 9 -12 581 -12 2513 0
1376 3 2505 7 2508 3 4 1146 7 2538 7 2118 0 2534 -2 2544 -14z m-2328 -700
c160 -55 240 -191 226 -386 -9 -137 -72 -234 -187 -289 -49 -23 -67 -26 -170
-26 -103 0 -121 3 -170 26 -81 38 -119 75 -155 151 -54 112 -56 268 -5 368 43
84 138 152 239 170 56 11 172 3 222 -14z m-1296 -520 c64 -30 102 -67 134
-136 22 -47 26 -68 26 -150 -1 -78 -5 -105 -24 -148 -47 -105 -146 -162 -281
-162 -185 0 -302 102 -317 275 -15 181 74 318 223 345 74 13 181 2 239 -24z
m2637 -3 c71 -32 109 -73 138 -150 18 -49 21 -73 18 -153 -5 -106 -22 -153
-80 -210 -58 -58 -109 -75 -228 -75 -100 0 -108 2 -167 34 -103 56 -143 135
-143 285 0 103 19 158 73 214 88 93 254 116 389 55z m-1282 -324 c293 -47 535
-241 634 -507 51 -139 51 -141 51 -717 0 -597 3 -570 -65 -655 -56 -70 -202
-124 -238 -88 -9 9 -12 149 -12 568 l0 556 -29 28 c-34 32 -51 30 -78 -11 -17
-26 -18 -92 -23 -1258 l-5 -1230 -164 -3 c-112 -2 -168 1 -177 9 -12 10 -14
115 -14 623 l0 613 -24 22 c-28 27 -68 23 -82 -6 -5 -10 -11 -297 -14 -638
l-5 -620 -144 -3 c-97 -2 -148 1 -157 9 -12 10 -14 204 -14 1235 l0 1224 -28
32 c-33 36 -51 34 -79 -9 -17 -25 -18 -69 -23 -588 l-5 -560 -55 0 c-41 0 -70
8 -114 30 -64 32 -93 64 -128 141 l-23 49 0 550 c0 541 0 551 23 628 86 300
338 525 644 576 76 12 271 13 348 0z m-886 -2053 c35 -19 89 -39 119 -46 31
-6 60 -17 66 -24 8 -9 10 -190 9 -602 l-3 -589 -149 -3 c-101 -2 -153 1 -162
9 -12 10 -14 117 -14 644 0 347 3 635 7 638 15 16 67 5 127 -27z m1565 20 c8
-9 10 -187 9 -647 l-3 -634 -144 -3 c-97 -2 -148 1 -157 9 -12 10 -14 111 -14
604 l0 592 67 17 c37 9 89 29 117 45 55 32 107 39 125 17z"/>
<path d="M1563 4995 c-106 -33 -207 -122 -257 -225 -27 -57 -31 -75 -31 -150
0 -110 28 -173 115 -260 87 -87 150 -115 260 -115 74 0 93 4 150 31 204 98
297 340 197 514 -27 47 -113 136 -161 167 -79 51 -186 66 -273 38z m202 -121
c98 -34 155 -126 155 -253 0 -89 -15 -135 -58 -183 -54 -60 -100 -78 -202 -78
-131 0 -204 41 -249 140 -28 61 -29 197 -2 255 24 52 78 103 127 120 54 19
170 19 229 -1z"/>
<path d="M3509 4996 c-108 -41 -193 -112 -243 -203 -85 -151 -61 -295 70 -430
87 -89 152 -118 264 -118 71 0 94 4 143 27 146 69 255 236 245 376 -9 123
-111 263 -237 325 -75 37 -179 47 -242 23z m232 -138 c55 -28 68 -41 94 -88
27 -50 30 -63 30 -150 0 -78 -4 -102 -22 -135 -49 -92 -112 -125 -236 -125
-73 0 -91 4 -143 30 -89 44 -117 95 -122 217 -6 123 13 174 85 236 35 31 93
46 174 47 66 0 84 -4 140 -32z"/>
</g>
</svg>
