
<svg version="1.0" xmlns="http://www.w3.org/2000/svg"
 width="512.000000pt" height="506.000000pt" viewBox="0 0 512.000000 506.000000"
 preserveAspectRatio="xMidYMid meet">

<g transform="translate(0.000000,506.000000) scale(0.100000,-0.100000)"
fill="#000000" stroke="none">
<path d="M1580 5049 c-128 -21 -257 -119 -312 -236 -126 -266 33 -567 325
-615 273 -45 533 213 487 482 -19 114 -44 165 -119 243 -99 103 -240 150 -381
126z m144 -211 c82 -25 156 -127 156 -214 0 -83 -58 -170 -135 -205 -144 -66
-315 46 -315 206 0 152 145 257 294 213z"/>
<path d="M3533 5050 c-81 -12 -173 -60 -234 -123 -168 -171 -170 -432 -4 -603
166 -169 429 -175 600 -13 93 88 136 188 136 316 0 79 -12 126 -50 202 -79
154 -270 248 -448 221z m157 -221 c90 -41 134 -108 134 -204 0 -172 -168 -276
-322 -199 -173 86 -158 344 25 410 54 19 111 17 163 -7z"/>
<path d="M2501 4504 c-173 -46 -323 -195 -375 -373 -20 -68 -21 -198 -1 -270
21 -79 60 -153 112 -211 25 -28 44 -52 42 -53 -2 -2 -29 -14 -59 -27 -144 -65
-322 -217 -405 -345 -21 -33 -39 -61 -41 -63 -1 -2 -25 7 -53 19 l-52 22 20
21 c10 12 32 44 49 72 108 184 76 420 -76 572 -261 260 -688 149 -798 -207
-20 -64 -19 -201 2 -264 21 -66 59 -133 97 -174 l29 -31 -53 -28 c-200 -101
-362 -277 -441 -481 -50 -130 -58 -196 -58 -507 0 -311 1 -315 64 -341 40 -17
79 -9 111 22 l25 26 0 226 c0 268 11 388 44 483 69 197 237 359 443 425 96 31
247 41 348 24 87 -15 211 -64 208 -82 0 -8 -9 -45 -19 -84 -16 -65 -18 -167
-21 -1367 l-4 -1298 -294 0 -295 0 -2 1091 -3 1091 -33 29 c-44 39 -90 39
-134 0 l-33 -29 -3 -1091 -2 -1091 -374 0 c-240 0 -384 -4 -404 -11 -66 -23
-83 -105 -33 -161 l29 -33 2502 0 2502 0 29 33 c50 56 33 138 -33 161 -19 7
-131 11 -289 11 l-259 0 0 1070 c0 1153 2 1117 -51 1154 -40 27 -86 21 -125
-18 l-34 -34 0 -1086 0 -1086 -304 0 -304 0 -5 1293 c-4 1339 -4 1327 -42
1447 -4 13 6 22 46 39 176 76 387 81 559 14 155 -61 297 -191 368 -336 62
-125 72 -194 72 -491 0 -140 4 -266 9 -279 38 -99 177 -86 196 17 13 67 -2
575 -18 647 -35 152 -122 309 -233 423 -77 78 -145 127 -249 179 l-87 44 26
30 c67 80 114 237 101 338 -16 120 -53 203 -128 283 -231 243 -631 184 -774
-115 -82 -170 -65 -351 47 -500 22 -29 40 -54 40 -56 0 -6 -60 -30 -64 -26 -1
2 -21 31 -44 65 -95 142 -228 256 -396 339 l-103 51 35 44 c176 227 150 536
-61 726 -128 115 -322 162 -486 118z m279 -224 c55 -28 94 -64 128 -118 103
-163 39 -377 -138 -461 -73 -35 -191 -37 -261 -4 -64 29 -126 87 -156 146
-120 239 72 505 335 465 30 -5 71 -17 92 -28z m-1331 -504 c166 -86 194 -322
53 -446 -73 -64 -163 -84 -258 -55 -173 51 -244 259 -141 412 72 107 231 148
346 89z m2623 2 c169 -71 210 -305 76 -438 -51 -51 -111 -74 -193 -75 -59 0
-78 5 -123 30 -225 124 -171 457 81 504 53 10 100 4 159 -21z m-1272 -329
c329 -53 582 -290 662 -619 10 -42 13 -173 13 -560 0 -557 2 -535 -64 -619
-28 -35 -98 -80 -148 -96 l-23 -6 0 566 0 567 -34 34 c-39 39 -85 45 -125 18
-53 -37 -51 11 -51 -1304 l0 -1220 -140 0 -140 0 0 620 0 620 -28 31 c-45 50
-134 41 -161 -18 -8 -17 -11 -209 -11 -638 l0 -615 -120 0 -120 0 -2 1241 -3
1241 -33 29 c-37 33 -84 38 -121 13 -50 -36 -51 -42 -51 -635 l0 -551 -27 7
c-87 21 -158 80 -197 164 -20 45 -21 58 -21 561 0 505 0 516 23 593 74 257
265 458 516 542 130 44 274 56 406 34z m-760 -2100 l60 -12 0 -563 0 -564
-125 0 -125 0 0 609 0 610 65 -34 c35 -19 91 -39 125 -46z m1440 -529 l0 -610
-120 0 -120 0 0 564 0 563 67 17 c37 9 89 29 117 45 28 17 52 30 54 30 1 1 2
-273 2 -609z"/>
<path d="M504 1630 c-62 -25 -82 -107 -39 -158 62 -74 175 -33 175 63 0 73
-70 122 -136 95z"/>
<path d="M4750 1622 c-23 -11 -39 -29 -48 -54 -13 -33 -12 -41 4 -75 14 -27
30 -42 56 -51 33 -13 41 -12 75 4 75 37 80 132 9 175 -38 23 -52 24 -96 1z"/>
</g>
</svg>
