
<svg version="1.0" xmlns="http://www.w3.org/2000/svg"
 width="512.000000pt" height="380.000000pt" viewBox="0 0 512.000000 380.000000"
 preserveAspectRatio="xMidYMid meet">

<g transform="translate(0.000000,380.000000) scale(0.100000,-0.100000)"
fill="#000000" stroke="none">
<path d="M1889 3785 c-32 -17 -53 -65 -46 -103 3 -15 59 -146 125 -292 l120
-265 -415 -5 -415 -5 -24 -28 -24 -28 0 -800 0 -801 29 -29 c48 -47 77 -41
292 61 l190 90 97 0 97 0 -51 -33 c-129 -82 -232 -199 -300 -342 -68 -140 -79
-195 -79 -375 1 -147 2 -160 32 -245 17 -49 48 -119 68 -155 41 -72 138 -195
160 -204 8 -3 15 -10 15 -16 0 -6 -61 -10 -175 -10 l-175 0 0 485 0 485 -28
31 c-37 41 -98 46 -136 10 -14 -13 -106 -147 -203 -298 l-178 -273 -405 -223
c-223 -122 -417 -234 -433 -249 -39 -38 -38 -98 2 -139 l29 -29 1485 0 1485 0
30 25 c51 43 51 107 1 154 -19 18 -35 21 -108 21 l-85 0 60 62 c103 106 172
229 210 373 25 97 26 314 1 404 -9 35 -16 65 -14 67 2 2 33 -50 70 -116 48
-85 76 -124 97 -135 43 -22 311 -21 350 1 19 12 68 90 168 268 l140 251 243 3
244 2 255 -214 c140 -118 270 -222 288 -231 41 -20 91 -7 122 32 20 25 20 38
20 1050 0 735 -3 1030 -11 1046 -30 58 -18 57 -461 57 -225 0 -408 2 -408 5 0
3 55 126 122 273 138 303 143 325 90 373 l-32 29 -1253 0 c-1062 -1 -1256 -3
-1278 -15z m2326 -204 c-9 -30 -196 -436 -203 -442 -4 -4 -387 -9 -852 -13
l-845 -6 -59 133 c-32 72 -80 180 -107 240 l-48 107 1060 0 c1028 0 1060 -1
1054 -19z m-1795 -668 c0 -5 -71 -260 -158 -568 l-158 -560 -141 -3 -140 -3
58 208 c126 443 124 431 72 479 -33 30 -90 32 -126 4 -33 -26 -40 -47 -138
-397 l-82 -293 -98 0 -99 0 0 570 0 570 505 0 c278 0 505 -3 505 -7z m849 -85
c-103 -189 -111 -210 -97 -254 10 -29 22 -44 51 -57 80 -40 110 -11 237 226
l94 177 214 -2 215 -3 102 -190 c107 -198 130 -225 189 -225 19 0 39 11 63 35
32 32 35 40 30 75 -3 21 -37 98 -76 170 -39 72 -71 133 -71 136 0 2 155 4 345
4 l345 0 0 -285 0 -285 -840 0 c-904 0 -887 1 -924 -51 -27 -40 -21 -86 18
-125 l34 -34 856 0 856 0 0 -440 c0 -242 -2 -440 -5 -440 -3 0 -91 72 -196
160 l-191 160 -334 0 c-331 0 -333 0 -359 -22 -14 -13 -86 -131 -159 -263
l-134 -240 -69 -3 -68 -2 -190 337 c-104 186 -202 350 -217 366 l-26 27 -321
0 c-177 0 -321 2 -321 4 0 5 308 1104 315 1124 3 9 81 12 345 12 l340 0 -51
-92z m-804 -1369 c28 -6 88 -29 135 -51 158 -75 290 -238 335 -413 22 -87 19
-234 -6 -325 -58 -213 -240 -390 -454 -445 -72 -19 -211 -21 -291 -5 -218 44
-420 238 -480 460 -22 84 -23 234 -1 317 21 80 75 185 126 246 158 189 390
267 636 216z m-1260 -1246 c-3 -10 -81 -13 -352 -13 -200 0 -343 4 -337 9 5 5
118 68 251 141 l243 133 97 151 98 151 3 -280 c1 -154 0 -285 -3 -292z"/>
<path d="M1899 2761 c-53 -53 -34 -137 37 -167 29 -12 39 -12 68 0 106 44 79
196 -34 196 -33 0 -48 -6 -71 -29z"/>
<path d="M2850 2337 c-48 -17 -76 -72 -60 -121 16 -50 45 -71 95 -71 111 0
142 148 40 191 -19 8 -36 14 -37 13 -2 0 -19 -5 -38 -12z"/>
<path d="M2190 1242 c-78 -30 -124 -59 -171 -109 -84 -88 -119 -175 -119 -293
0 -360 423 -552 697 -316 56 49 99 117 123 194 62 199 -29 406 -217 499 -70
34 -84 38 -172 40 -72 2 -107 -2 -141 -15z m231 -213 c76 -38 114 -112 107
-210 -8 -112 -97 -192 -212 -191 -120 1 -209 91 -209 212 0 164 166 264 314
189z"/>
<path d="M4085 1118 c-92 -17 -211 -83 -285 -158 -108 -110 -162 -241 -161
-396 0 -119 37 -240 96 -319 14 -17 25 -35 25 -38 0 -4 -27 -7 -61 -7 -54 0
-64 -3 -90 -29 -41 -42 -41 -98 2 -140 l31 -31 708 0 708 0 31 31 c40 39 43
94 7 136 l-24 28 -215 5 -215 5 39 65 c75 123 102 269 75 400 -65 311 -358
507 -671 448z m246 -221 c193 -80 280 -297 194 -484 -29 -65 -103 -140 -170
-172 -72 -36 -198 -41 -275 -12 -76 29 -132 72 -173 134 -47 72 -61 119 -61
208 1 114 50 209 148 284 89 68 231 85 337 42z"/>
<path d="M4173 663 c-12 -2 -34 -18 -48 -34 -67 -81 10 -192 110 -159 89 29
87 157 -2 191 -13 5 -27 8 -31 8 -4 -1 -17 -4 -29 -6z"/>
<path d="M3271 179 c-50 -47 -50 -111 1 -154 76 -64 194 15 159 107 -17 44
-50 68 -96 68 -28 0 -48 -7 -64 -21z"/>
</g>
</svg>
