
<svg version="1.0" xmlns="http://www.w3.org/2000/svg"
 width="512.000000pt" height="380.000000pt" viewBox="0 0 512.000000 380.000000"
 preserveAspectRatio="xMidYMid meet">

<g transform="translate(0.000000,380.000000) scale(0.100000,-0.100000)"
fill="#000000" stroke="none">
<path d="M0 1900 l0 -1900 2560 0 2560 0 0 1900 0 1900 -2560 0 -2560 0 0
-1900z m1939 1876 c10 -12 7 -18 -13 -32 -15 -9 -29 -26 -32 -38 -3 -14 35
-110 116 -290 89 -196 120 -276 118 -300 l-3 -31 -413 -5 -414 -5 -24 -28 -24
-28 0 -761 0 -762 22 -23 c12 -13 28 -23 36 -23 8 0 95 38 194 85 l179 85 123
0 c136 0 150 -6 144 -57 -2 -20 -15 -36 -48 -58 -170 -112 -304 -297 -357
-495 -27 -99 -25 -273 6 -370 35 -114 93 -216 177 -313 68 -80 75 -92 72 -125
l-3 -37 -199 -3 c-138 -2 -203 1 -212 9 -12 9 -14 95 -14 487 0 475 0 476 -22
499 -28 30 -51 29 -80 -5 -12 -15 -99 -146 -193 -290 l-170 -262 -395 -217
c-217 -119 -410 -227 -427 -240 -40 -29 -41 -48 -7 -84 14 -15 23 -32 20 -38
-9 -15 -59 -14 -74 1 -9 9 -12 441 -12 1883 0 1030 3 1875 7 1878 3 4 435 7
958 7 815 0 954 -2 964 -14z m3159 2 c16 -16 17 -753 2 -763 -6 -3 -25 10 -44
29 l-33 36 -400 0 c-297 0 -402 3 -411 12 -27 27 -11 82 103 332 63 139 115
261 115 272 0 10 -12 30 -26 45 -14 15 -23 32 -20 38 10 16 698 15 714 -1z
m-850 -150 c28 -28 11 -84 -91 -308 l-103 -225 -879 -8 c-717 -7 -881 -6 -891
5 -8 7 -61 118 -119 246 -96 212 -117 276 -98 295 3 4 493 7 1088 7 827 0
1084 -3 1093 -12z m-1800 -680 c7 -7 12 -28 12 -47 0 -20 -71 -288 -158 -596
l-158 -560 -168 -3 c-179 -3 -196 1 -196 44 0 13 36 152 80 308 44 157 80 290
80 297 0 19 -31 49 -51 49 -22 0 -54 -40 -68 -83 -5 -18 -47 -164 -92 -324
l-82 -293 -126 0 c-86 0 -131 4 -139 12 -9 9 -12 157 -12 603 0 326 3 595 7
598 3 4 243 7 533 7 396 0 529 -3 538 -12z m900 0 c24 -24 11 -71 -58 -197
-38 -71 -70 -138 -70 -148 0 -42 53 -58 82 -25 9 9 51 82 93 162 43 80 88 162
101 183 l24 37 245 0 245 0 24 -37 c13 -21 58 -103 101 -183 86 -162 99 -180
128 -180 24 0 57 27 57 48 0 7 -32 72 -71 144 -57 105 -70 136 -67 166 l3 37
369 3 c266 2 372 -1 382 -9 12 -10 14 -68 12 -323 l-3 -311 -850 -5 c-799 -5
-853 -6 -878 -23 -41 -27 -43 -44 -11 -78 l28 -29 847 0 c703 0 848 -2 858
-14 8 -9 10 -143 9 -477 l-3 -464 -41 -3 c-39 -3 -47 2 -232 158 l-192 160
-294 0 c-291 0 -295 0 -321 -22 -14 -13 -86 -131 -159 -263 l-134 -240 -105
-3 -105 -3 -195 343 c-107 189 -206 353 -219 366 -24 22 -27 22 -334 22 -228
0 -313 3 -322 12 -7 7 -12 26 -12 44 0 24 285 1065 315 1152 6 17 735 18 753
0z m-395 -1433 c45 -78 57 -108 55 -135 -3 -33 -6 -35 -40 -38 -35 -3 -44 3
-110 65 -40 38 -94 84 -120 101 -41 28 -48 38 -48 66 0 18 3 36 7 40 4 4 50 5
102 4 l96 -3 58 -100z m-454 -16 c25 -6 89 -32 141 -56 126 -60 219 -151 279
-274 58 -119 71 -180 71 -334 0 -219 -50 -348 -189 -485 -131 -130 -268 -183
-471 -183 -147 0 -212 14 -330 70 -123 59 -216 149 -277 268 -61 119 -77 187
-77 340 0 149 14 217 68 322 96 189 270 312 486 344 67 9 235 3 299 -12z
m1998 -101 c17 -13 137 -112 267 -220 129 -109 243 -198 254 -198 10 0 29 11
42 25 50 53 50 45 48 -494 l-3 -496 -31 -3 c-19 -2 -36 3 -44 13 -11 13 -9 19
14 40 32 29 32 42 4 72 -21 23 -25 23 -223 23 -143 0 -204 3 -213 12 -22 22
-12 68 28 136 135 223 98 452 -102 638 -115 105 -265 157 -395 135 -209 -36
-393 -205 -448 -411 -34 -126 -5 -271 76 -383 24 -33 29 -50 27 -82 l-3 -40
-61 -5 c-64 -5 -104 -28 -104 -59 0 -8 12 -27 26 -42 14 -15 23 -32 20 -38 -5
-8 -111 -11 -335 -11 -280 0 -330 2 -341 15 -10 13 -8 19 14 36 15 12 26 30
26 44 0 38 -35 55 -115 55 -79 0 -95 9 -95 55 0 24 11 42 51 80 194 189 278
484 211 736 -31 116 -28 134 22 134 l38 0 68 -120 c94 -165 94 -165 237 -165
89 0 121 4 143 17 18 10 52 60 101 147 40 72 103 186 141 254 l69 122 278 0
c271 0 277 0 308 -22z m-107 -474 c150 -72 217 -199 208 -395 -6 -117 -34
-186 -105 -256 -80 -79 -127 -97 -269 -101 -111 -4 -126 -2 -183 21 -88 36
-127 64 -167 124 -57 85 -67 124 -68 253 -1 109 1 118 30 180 46 94 109 154
201 191 40 16 69 18 168 16 111 -2 125 -4 185 -33z m-3151 -118 c8 -9 11 -104
9 -327 l-3 -314 -374 -3 c-275 -2 -377 1 -388 10 -8 7 -13 25 -11 45 3 34 7
37 250 170 l248 136 96 149 c91 141 97 148 129 148 18 0 38 -6 44 -14z"/>
<path d="M2230 1202 c-78 -30 -124 -59 -171 -109 -159 -167 -155 -359 10 -517
99 -93 211 -132 308 -106 153 42 259 144 305 294 19 63 20 76 9 130 -17 81
-40 123 -107 195 -101 110 -244 156 -354 113z m234 -139 c41 -23 56 -39 79
-83 26 -51 28 -62 25 -157 -3 -94 -5 -104 -33 -144 -47 -67 -110 -94 -215 -94
-75 1 -92 5 -140 30 -44 24 -61 41 -85 85 -27 50 -30 64 -30 145 1 117 33 182
110 223 79 41 206 39 289 -5z"/>
</g>
</svg>
